<svg width="32" height="32" viewBox="0 0 32 32" fill="none" xmlns="http://www.w3.org/2000/svg">
  <rect width="32" height="32" rx="4" fill="#2563EB"/>
  <path d="M8 16C8 11.5817 11.5817 8 16 8C20.4183 8 24 11.5817 24 16C24 20.4183 20.4183 24 16 24C11.5817 24 8 20.4183 8 16Z" fill="white"/>
  <path d="M13 15.5C13 16.3284 13.6716 17 14.5 17C15.3284 17 16 16.3284 16 15.5C16 14.6716 15.3284 14 14.5 14C13.6716 14 13 14.6716 13 15.5Z" fill="#2563EB"/>
  <path d="M17 15.5C17 16.3284 17.6716 17 18.5 17C19.3284 17 20 16.3284 20 15.5C20 14.6716 19.3284 14 18.5 14C17.6716 14 17 14.6716 17 15.5Z" fill="#2563EB"/>
</svg>
